<svg viewBox="0 0 60 60" xmlns="http://www.w3.org/2000/svg" xmlns:xlink="http://www.w3.org/1999/xlink"><style>:root&gt;svg{display:none}:root&gt;svg:target{display:block}</style><svg viewBox="0 0 60 60" id="logo-1" xmlns="http://www.w3.org/2000/svg"><g id="aСлой_1" data-name="Слой 1" fill="none" stroke="#e2000f" stroke-miterlimit="10"><path d="M4.03 3.68h52.29v52.29H4.03zm52.29 0L3.68 56.32" stroke-width="3.88"/><path d="M4.03 3.68l52.29 52.29M3.68 30h52.64M15.29 14.94h30.13M16.57 43.43h27.34" stroke-width="4.27"/></g></svg><svg data-name="Шаблон Image.jpg" viewBox="0 0 60 60" id="logo-2" xmlns="http://www.w3.org/2000/svg"><path d="M1.13 1.13v57.74h57.74V1.13zm43.35 11.54h-29L8 5.15h44zm-4 4L30 27.15 19.55 16.7zM25.14 28h-20V8zm-20 4h20l-20 20zm24.86.85l9.08 9.08H20.92zM16.89 46h26.22L52 54.85H8zm18-14h20v20zm20-4h-20l20-20z"/></svg><svg viewBox="0 0 24 24" id="phone-icon" xmlns="http://www.w3.org/2000/svg"><path d="M24 18.954c0 .307-.057.708-.17 1.202-.114.495-.233.884-.358 1.168-.239.568-.932 1.17-2.08 1.807-1.068.58-2.125.869-3.17.869a6.53 6.53 0 01-.895-.06c-.29-.04-.617-.11-.98-.213a13.939 13.939 0 01-.81-.247 68.2 68.2 0 01-.946-.35 38 38 0 00-.835-.306 15.444 15.444 0 01-2.983-1.415c-1.455-.898-2.958-2.122-4.509-3.673-1.55-1.551-2.775-3.054-3.673-4.509a15.436 15.436 0 01-1.415-2.983c-.034-.102-.136-.38-.307-.835a67.14 67.14 0 01-.35-.946 13.896 13.896 0 01-.246-.81 7.368 7.368 0 01-.213-.98A6.54 6.54 0 010 5.778c0-1.045.29-2.102.87-3.17C1.505 1.46 2.107.767 2.675.528 2.96.403 3.35.284 3.844.17 4.338.057 4.739 0 5.045 0c.16 0 .279.017.358.051.205.068.506.5.904 1.296.125.216.295.522.511.92.216.398.415.759.597 1.082.182.324.358.628.528.912.034.046.134.188.298.426.165.24.287.44.367.606.08.164.12.326.12.485 0 .228-.163.512-.487.853a8.31 8.31 0 01-1.056.937c-.381.284-.733.585-1.057.904-.324.318-.486.58-.486.784 0 .102.028.23.085.383.057.154.105.27.145.35.04.08.12.215.239.409.12.193.184.3.196.324.863 1.556 1.852 2.892 2.966 4.005 1.113 1.114 2.449 2.102 4.005 2.966.023.011.131.077.324.196.194.12.33.2.41.239.079.04.195.088.349.145.153.056.281.085.383.085.205 0 .466-.162.784-.486.319-.324.62-.676.904-1.057.284-.38.596-.733.937-1.057.341-.323.625-.485.853-.485.159 0 .32.04.485.119.165.08.367.202.605.367.24.164.381.264.427.298.284.17.588.346.912.528.323.182.684.38 1.082.597.398.216.704.386.92.511.796.398 1.228.699 1.296.904.034.08.051.198.051.357z"/></svg><svg viewBox="0 0 31 30" id="telegram-icon" xmlns="http://www.w3.org/2000/svg"><path fill-rule="evenodd" clip-rule="evenodd" d="M15.969 30c8.284 0 15-6.716 15-15 0-8.284-6.716-15-15-15-8.284 0-15 6.716-15 15 0 8.284 6.716 15 15 15zm6.593-20.417c.116-1.314-1.272-.773-1.272-.773-1.025.425-2.081.855-3.15 1.291-3.311 1.35-6.732 2.746-9.647 4.12-1.58.58-.655 1.16-.655 1.16l2.505.773c1.157.348 1.773-.04 1.773-.04l5.397-3.67c1.927-1.315 1.464-.233 1.002.231l-4.047 3.865c-.617.541-.309 1.005-.04 1.237.766.674 2.647 1.909 3.468 2.448.214.14.355.233.388.257.192.155 1.233.85 1.927.696.694-.155.77-1.044.77-1.044l.926-6.068c.138-1.053.298-2.065.425-2.874.12-.764.211-1.346.23-1.609z"/></svg><svg viewBox="0 0 31 30" id="whatsapp-icon" xmlns="http://www.w3.org/2000/svg"><g clip-path="url(#eclip0_274_786)"><path fill-rule="evenodd" clip-rule="evenodd" d="M15.969 30c8.284 0 15-6.716 15-15 0-8.284-6.716-15-15-15-8.285 0-15 6.716-15 15 0 8.284 6.715 15 15 15zm5.929-21.302A8.122 8.122 0 0016.114 6.3c-4.507 0-8.175 3.668-8.176 8.176a8.162 8.162 0 001.09 4.087L7.869 22.8l4.335-1.137a8.168 8.168 0 003.907.995h.003c4.507 0 8.175-3.668 8.177-8.176a8.124 8.124 0 00-2.392-5.784zm-2.057 7.49c-.204-.103-1.208-.597-1.396-.665-.187-.068-.323-.102-.46.102-.136.205-.527.665-.646.801-.12.137-.239.154-.443.051a3.529 3.529 0 00-.135-.06c-.288-.125-.855-.371-1.508-.954-.607-.541-1.017-1.21-1.136-1.415-.12-.204-.013-.315.09-.417.06-.06.131-.147.201-.232.036-.043.07-.086.105-.126.086-.1.124-.178.175-.281l.029-.06c.068-.136.034-.255-.017-.357-.034-.069-.228-.54-.403-.967l-.227-.55c-.146-.352-.295-.351-.414-.35h-.046a8.088 8.088 0 00-.391-.008.75.75 0 00-.545.256l-.04.043c-.213.227-.675.72-.675 1.661 0 1.003.728 1.972.834 2.112v.001l.036.05c.244.35 1.538 2.208 3.454 3.035.488.21.868.336 1.165.43.49.156.935.134 1.287.081.392-.058 1.208-.494 1.379-.97.17-.478.17-.887.119-.972-.041-.07-.138-.116-.281-.185a8.681 8.681 0 01-.11-.054z"/></g><defs><clipPath id="eclip0_274_786"><path transform="translate(.969)" d="M0 0h30v30H0z"/></clipPath></defs></svg><svg viewBox="0 0 31 30" id="youtube-icon" xmlns="http://www.w3.org/2000/svg"><path fill-rule="evenodd" clip-rule="evenodd" d="M15.969 30c8.284 0 15-6.716 15-15 0-8.284-6.716-15-15-15-8.285 0-15 6.716-15 15 0 8.284 6.715 15 15 15zm4.158-21.334c2.29 0 3.49.315 4.14 1.088.653.775.702 1.964.702 3.688v3.116c0 1.976-.312 3.117-1.042 3.816-.712.682-1.813.96-3.8.96H11.81c-4.093 0-4.842-1.608-4.842-4.776v-3.116c0-1.635 0-2.816.63-3.618.648-.822 1.868-1.158 4.211-1.158h8.317zm-5.379 8.738l3.777-1.974a.58.58 0 00-.002-1.03l-3.776-1.96a.58.58 0 00-.848.515v3.934a.58.58 0 00.85.515z"/></svg></svg>