<?xml version="1.0" encoding="utf-8"?><svg viewBox="0 0 60 60" xmlns="http://www.w3.org/2000/svg" xmlns:xlink="http://www.w3.org/1999/xlink"><style>:root>svg{display:none}:root>svg:target{display:block}</style><svg viewBox="0 0 36 36" id="advantages-icon" xmlns="http://www.w3.org/2000/svg"><path d="M18 0a18 18 0 100 36 18 18 0 000-36zm10.217 14.827l-10.8 9.9a1.8 1.8 0 01-2.49-.054l-5.4-5.4a1.8 1.8 0 112.546-2.546l4.181 4.182 9.53-8.736a1.8 1.8 0 012.433 2.654z"/></svg><svg viewBox="0 0 36 36" id="airbags-icon" xmlns="http://www.w3.org/2000/svg"><g clip-path="url(#bclip0_274_1296)"><g clip-path="url(#bclip1_274_1296)"><path d="M33.236 1.304a2.122 2.122 0 00-2.45 1.734l-.299 1.327a3.328 3.328 0 00.18 2.024 6.18 6.18 0 01.694-.042c1.139 0 2.21.345 3.048.963l.565-3.581a2.122 2.122 0 00-1.738-2.425zM-1 10.126v4.219c0 .582.472 1.055 1.055 1.055h2.063V9.07H.055C-.528 9.071-1 9.544-1 10.126zM6.337 6.488a1.056 1.056 0 00-2.11 0v11.495a1.056 1.056 0 002.11 0V6.489zM13.557 22.749c1.634 0 3.105-1.197 4.142-3.371.918-1.925 1.424-4.462 1.424-7.142 0-2.68-.506-5.217-1.424-7.142-1.037-2.174-2.508-3.371-4.142-3.371-1.615 0-3.492 1.19-5.021 3.183-.035.045-.069.09-.102.136.005.803 0 14.388 0 14.388l.102.136c1.53 1.993 3.407 3.183 5.02 3.183z"/><path d="M31.011 8.473c-1.44.137-2.705.962-3.762 2.45-.669.943-1.249 2.138-1.772 3.654-1.356 3.93-1.53 8.148-.478 11.575.04.127.081.255.124.381-2.324-.8-4.98-1.334-7.636-1.525-3.325-.24-6.376.055-8.824.85-1.697.552-2.681 2.327-2.24 4.041.007.029.015.057.025.085l1.41 4.035c.147.424.547.707.995.707H28.99c.506 0 .94-.359 1.036-.856l.692-3.614c.008-.04.012-.082.015-.122a3.154 3.154 0 01-2.234.926 3.168 3.168 0 01-3.164-3.165 3.168 3.168 0 013.164-3.164c1.194 0 2.235.665 2.774 1.643L33.997 11.2c.127-.73-.06-1.41-.527-1.913-.558-.603-1.477-.907-2.459-.813z"/><path d="M28.5 28.95a1.055 1.055 0 10-.001-2.109 1.055 1.055 0 000 2.11z"/></g></g><defs><clipPath id="bclip0_274_1296"><path d="M0 0h36v36H0z"/></clipPath><clipPath id="bclip1_274_1296"><path transform="translate(-1)" d="M0 0h36v36H0z"/></clipPath></defs></svg><svg viewBox="0 0 36 36" id="car-icon" xmlns="http://www.w3.org/2000/svg"><path d="M31.716 13.5h-3.384l-.9-2.34c-.935-2.412-3.275-3.96-5.867-3.96h-7.129a6.294 6.294 0 00-5.868 3.96l-.936 2.34H4.248a.684.684 0 00-.684.684c0 .036 0 .108.036.144l.324 1.368c.072.288.36.504.648.504H5.76c-.792.684-1.26 1.656-1.26 2.7v2.7c0 .864.324 1.692.9 2.376V27c0 1.008.792 1.8 1.8 1.8H9c1.008 0 1.8-.792 1.8-1.8v-1.8h14.4V27c0 1.008.793 1.8 1.8 1.8h1.8c1.008 0 1.8-.792 1.8-1.8v-3.06c.576-.648.9-1.476.9-2.376v-2.7c0-1.044-.468-2.016-1.26-2.7h1.117a.66.66 0 00.648-.504l.323-1.368a.72.72 0 00-.504-.828c0 .036-.036.036-.108.036zm-19.8-1.008c.396-1.044 1.404-1.692 2.52-1.692h7.128c1.116 0 2.125.684 2.52 1.692l1.117 2.808H10.8l1.115-2.808zM9 21.6c-.936.072-1.728-.648-1.8-1.584V19.8c-.072-.936.648-1.728 1.584-1.8H9c1.08 0 2.7 1.62 2.7 2.7s-1.62.9-2.7.9zm18 0c-1.08 0-2.7.18-2.7-.9S25.92 18 27 18c.936-.072 1.729.648 1.8 1.584v.216c.072.936-.648 1.728-1.584 1.8H27z"/></svg><svg viewBox="0 0 60 60" id="car-quality-icon" xmlns="http://www.w3.org/2000/svg"><path d="M13.946 20.635c.128.501.536.927 1.054.927s.926-.426 1.054-.927a3.75 3.75 0 012.706-2.706c.501-.128.927-.536.927-1.054s-.426-.926-.927-1.054a3.75 3.75 0 01-2.706-2.706c-.128-.501-.536-.928-1.054-.928s-.926.427-1.054.928a3.75 3.75 0 01-2.706 2.706c-.501.128-.928.536-.928 1.054s.427.926.928 1.054a3.75 3.75 0 012.706 2.706zm.34-4.473a1.037 1.037 0 011.427 0 1.037 1.037 0 010 1.426 1.037 1.037 0 01-1.426 0 1.037 1.037 0 010-1.426zM43.946 20.635c.128.501.536.927 1.054.927s.926-.426 1.054-.927a3.75 3.75 0 012.706-2.706c.501-.128.928-.536.928-1.054s-.427-.926-.928-1.054a3.75 3.75 0 01-2.706-2.706c-.128-.501-.536-.928-1.054-.928s-.926.427-1.054.928a3.75 3.75 0 01-2.706 2.706c-.501.128-.928.536-.928 1.054s.427.926.928 1.054a3.75 3.75 0 012.706 2.706zm.34-4.473a1.037 1.037 0 011.427 0 1.037 1.037 0 010 1.426 1.037 1.037 0 01-1.426 0 1.037 1.037 0 010-1.426zM28.946 12.197c.128.502.536.928 1.054.928s.926-.426 1.054-.928a3.75 3.75 0 012.706-2.705c.501-.129.928-.537.928-1.055 0-.517-.427-.925-.928-1.054a3.75 3.75 0 01-2.706-2.705c-.128-.502-.536-.928-1.054-.928s-.926.426-1.054.928a3.75 3.75 0 01-2.706 2.705c-.501.129-.927.537-.927 1.054 0 .518.426.926.927 1.055a3.75 3.75 0 012.706 2.705zm.34-4.473a1.037 1.037 0 011.427 0 1.037 1.037 0 010 1.427 1.037 1.037 0 01-1.426 0 1.037 1.037 0 010-1.427zM13.637 41.403l-6.562-4.29a.938.938 0 00-1.45.725l-.262 4.175a.937.937 0 00.445.858l3.75 2.3a.938.938 0 001.032-.034l3.074-2.185a.939.939 0 00-.03-1.55h.003zm-3.625 1.846l-2.741-1.681.127-2.005 4.063 2.655-1.449 1.03zM45.938 42.169a.937.937 0 00.394.783l3.074 2.185a.938.938 0 001.032.035l3.75-2.301a.938.938 0 00.445-.858l-.258-4.174a.938.938 0 00-1.448-.726l-6.563 4.29a.939.939 0 00-.426.766zm6.664-2.606l.127 2.004-2.741 1.682-1.449-1.032 4.063-2.654z"/><mask id="da" maskUnits="userSpaceOnUse" x="-.061" y="21.5" width="60" height="36"><path d="M-.061 21.5h60v36h-60z"/><path d="M57.187 32.813a.937.937 0 00.664-.276l.937-.938a.937.937 0 00.175-1.08l-.938-1.876a.938.938 0 00-.838-.518h-3.75a.938.938 0 00-.663.275l-.937.937a.937.937 0 00-.176 1.082l.728 1.456-.358.716-1.338-2.675a12.188 12.188 0 00-10.091-6.712l-10.54-.704h-.124l-10.54.702a12.142 12.142 0 00-6.805 2.645 12.292 12.292 0 00-3.287 4.069L7.968 32.59l-.358-.716.733-1.456a.938.938 0 00-.176-1.082L7.23 28.4a.939.939 0 00-.668-.275h-3.75a.937.937 0 00-.838.518l-.937 1.875a.938.938 0 00.174 1.076l.937.937a.937.937 0 00.664.282h3.17l.447.893-2.16 1.075a.955.955 0 00-.362.319l-1.875 2.813a.943.943 0 00-.157.525v11.949a2.871 2.871 0 00.937 2.113v1.818a2.844 2.844 0 002.813 2.87h3.75a2.821 2.821 0 002.718-2.157l2.813.282c.032 0 .063.004.094.004a.933.933 0 00.37-.076l3.047-1.306.431.864a.938.938 0 00.84.514h20.624a.937.937 0 00.844-.519l.431-.863 3.048 1.306c.115.05.24.075.365.075.03 0 .062 0 .093-.004l2.8-.281a2.772 2.772 0 002.732 2.16h3.75a2.844 2.844 0 002.812-2.87V52.5a2.87 2.87 0 00.938-2.113v-11.95a.943.943 0 00-.158-.52l-1.875-2.812a.955.955 0 00-.36-.32l-2.157-1.08.442-.892h3.17zm-43.421-5.5a10.266 10.266 0 015.756-2.238l10.478-.7 10.477.698a10.319 10.319 0 018.539 5.68l1.028 2.06H9.954l1.031-2.063a10.238 10.238 0 012.78-3.437zm35.532 7.375l-5.727 5.728-6.203 1.772h-3.397l-1.677-.844a.937.937 0 00-.42-.094h-3.75a.937.937 0 00-.418.094l-1.678.843h-3.397l-6.188-1.769-5.433-5.73h38.288zm-43.312-3.75H3.2l-.187-.188.375-.75h2.785l.188.188-.376.75zM4.875 50.063a.938.938 0 00-.188.562v.946l-.51-.35a1.009 1.009 0 01-.427-.834V44.45l3.047 3.047-1.922 2.565zm4.5 5.25h-3.75a.969.969 0 01-.938-.995v-.469l.188.127a.918.918 0 00.656.399l4.626.463a.914.914 0 01-.782.474zM38.807 50.7l-.74 1.723 1.79.767-.124.246H20.267l-.124-.246 1.789-.767-.74-1.723-6.34 2.719-8.29-.826v-1.657l2.19-2.921 10.793 1.66a.907.907 0 00.142.011h20.625a.908.908 0 00.142-.01l10.792-1.66 2.191 2.92v1.657l-8.29.828-6.34-2.721zm16.318-.639l-1.923-2.564 3.048-3.047v5.936a1.008 1.008 0 01-.429.834l-.509.35v-.946c0-.203-.066-.4-.187-.563zm-.75 5.25h-3.75a.914.914 0 01-.782-.479l4.625-.458a.918.918 0 00.657-.398l.187-.127v.469a.968.968 0 01-.937.993zM56.25 38.72v3.078l-4.197 4.196-11.813 1.82H19.76L7.946 45.995 3.75 41.799v-3.08l1.58-2.37 3.17-1.586 6.757 7.125c.115.122.261.21.422.257l6.563 1.875c.084.026.17.04.258.042h3.75a.938.938 0 00.419-.093l1.677-.844h3.307l1.678.844c.13.063.274.095.419.093h3.75a.96.96 0 00.258-.035l6.562-1.875a.943.943 0 00.405-.24l7.025-7.022 2.924 1.462 1.576 2.367zM53.825 30h2.783l.375.75-.188.188h-2.778l-.375-.75.183-.188z"/></mask><path d="M57.187 32.813a.937.937 0 00.664-.276l.937-.938a.937.937 0 00.175-1.08l-.938-1.876a.938.938 0 00-.838-.518h-3.75a.938.938 0 00-.663.275l-.937.937a.937.937 0 00-.176 1.082l.728 1.456-.358.716-1.338-2.675a12.188 12.188 0 00-10.091-6.712l-10.54-.704h-.124l-10.54.702a12.142 12.142 0 00-6.805 2.645 12.292 12.292 0 00-3.287 4.069L7.968 32.59l-.358-.716.733-1.456a.938.938 0 00-.176-1.082L7.23 28.4a.939.939 0 00-.668-.275h-3.75a.937.937 0 00-.838.518l-.937 1.875a.938.938 0 00.174 1.076l.937.937a.937.937 0 00.664.282h3.17l.447.893-2.16 1.075a.955.955 0 00-.362.319l-1.875 2.813a.943.943 0 00-.157.525v11.949a2.871 2.871 0 00.937 2.113v1.818a2.844 2.844 0 002.813 2.87h3.75a2.821 2.821 0 002.718-2.157l2.813.282c.032 0 .063.004.094.004a.933.933 0 00.37-.076l3.047-1.306.431.864a.938.938 0 00.84.514h20.624a.937.937 0 00.844-.519l.431-.863 3.048 1.306c.115.05.24.075.365.075.03 0 .062 0 .093-.004l2.8-.281a2.772 2.772 0 002.732 2.16h3.75a2.844 2.844 0 002.812-2.87V52.5a2.87 2.87 0 00.938-2.113v-11.95a.943.943 0 00-.158-.52l-1.875-2.812a.955.955 0 00-.36-.32l-2.157-1.08.442-.892h3.17zm-43.421-5.5a10.266 10.266 0 015.756-2.238l10.478-.7 10.477.698a10.319 10.319 0 018.539 5.68l1.028 2.06H9.954l1.031-2.063a10.238 10.238 0 012.78-3.437zm35.532 7.375l-5.727 5.728-6.203 1.772h-3.397l-1.677-.844a.937.937 0 00-.42-.094h-3.75a.937.937 0 00-.418.094l-1.678.843h-3.397l-6.188-1.769-5.433-5.73h38.288zm-43.312-3.75H3.2l-.187-.188.375-.75h2.785l.188.188-.376.75zM4.875 50.063a.938.938 0 00-.188.562v.946l-.51-.35a1.009 1.009 0 01-.427-.834V44.45l3.047 3.047-1.922 2.565zm4.5 5.25h-3.75a.969.969 0 01-.938-.995v-.469l.188.127a.918.918 0 00.656.399l4.626.463a.914.914 0 01-.782.474zM38.807 50.7l-.74 1.723 1.79.767-.124.246H20.267l-.124-.246 1.789-.767-.74-1.723-6.34 2.719-8.29-.826v-1.657l2.19-2.921 10.793 1.66a.907.907 0 00.142.011h20.625a.908.908 0 00.142-.01l10.792-1.66 2.191 2.92v1.657l-8.29.828-6.34-2.721zm16.318-.639l-1.923-2.564 3.048-3.047v5.936a1.008 1.008 0 01-.429.834l-.509.35v-.946c0-.203-.066-.4-.187-.563zm-.75 5.25h-3.75a.914.914 0 01-.782-.479l4.625-.458a.918.918 0 00.657-.398l.187-.127v.469a.968.968 0 01-.937.993zM56.25 38.72v3.078l-4.197 4.196-11.813 1.82H19.76L7.946 45.995 3.75 41.799v-3.08l1.58-2.37 3.17-1.586 6.757 7.125c.115.122.261.21.422.257l6.563 1.875c.084.026.17.04.258.042h3.75a.938.938 0 00.419-.093l1.677-.844h3.307l1.678.844c.13.063.274.095.419.093h3.75a.96.96 0 00.258-.035l6.562-1.875a.943.943 0 00.405-.24l7.025-7.022 2.924 1.462 1.576 2.367zM53.825 30h2.783l.375.75-.188.188h-2.778l-.375-.75.183-.188z"/><path d="M57.187 32.813a.937.937 0 00.664-.276l.937-.938a.937.937 0 00.175-1.08l-.938-1.876a.938.938 0 00-.838-.518h-3.75a.938.938 0 00-.663.275l-.937.937a.937.937 0 00-.176 1.082l.728 1.456-.358.716-1.338-2.675a12.188 12.188 0 00-10.091-6.712l-10.54-.704h-.124l-10.54.702a12.142 12.142 0 00-6.805 2.645 12.292 12.292 0 00-3.287 4.069L7.968 32.59l-.358-.716.733-1.456a.938.938 0 00-.176-1.082L7.23 28.4a.939.939 0 00-.668-.275h-3.75a.937.937 0 00-.838.518l-.937 1.875a.938.938 0 00.174 1.076l.937.937a.937.937 0 00.664.282h3.17l.447.893-2.16 1.075a.955.955 0 00-.362.319l-1.875 2.813a.943.943 0 00-.157.525v11.949a2.871 2.871 0 00.937 2.113v1.818a2.844 2.844 0 002.813 2.87h3.75a2.821 2.821 0 002.718-2.157l2.813.282c.032 0 .063.004.094.004a.933.933 0 00.37-.076l3.047-1.306.431.864a.938.938 0 00.84.514h20.624a.937.937 0 00.844-.519l.431-.863 3.048 1.306c.115.05.24.075.365.075.03 0 .062 0 .093-.004l2.8-.281a2.772 2.772 0 002.732 2.16h3.75a2.844 2.844 0 002.812-2.87V52.5a2.87 2.87 0 00.938-2.113v-11.95a.943.943 0 00-.158-.52l-1.875-2.812a.955.955 0 00-.36-.32l-2.157-1.08.442-.892h3.17zm-43.421-5.5a10.266 10.266 0 015.756-2.238l10.478-.7 10.477.698a10.319 10.319 0 018.539 5.68l1.028 2.06H9.954l1.031-2.063a10.238 10.238 0 012.78-3.437zm35.532 7.375l-5.727 5.728-6.203 1.772h-3.397l-1.677-.844a.937.937 0 00-.42-.094h-3.75a.937.937 0 00-.418.094l-1.678.843h-3.397l-6.188-1.769-5.433-5.73h38.288zm-43.312-3.75H3.2l-.187-.188.375-.75h2.785l.188.188-.376.75zM4.875 50.063a.938.938 0 00-.188.562v.946l-.51-.35a1.009 1.009 0 01-.427-.834V44.45l3.047 3.047-1.922 2.565zm4.5 5.25h-3.75a.969.969 0 01-.938-.995v-.469l.188.127a.918.918 0 00.656.399l4.626.463a.914.914 0 01-.782.474zM38.807 50.7l-.74 1.723 1.79.767-.124.246H20.267l-.124-.246 1.789-.767-.74-1.723-6.34 2.719-8.29-.826v-1.657l2.19-2.921 10.793 1.66a.907.907 0 00.142.011h20.625a.908.908 0 00.142-.01l10.792-1.66 2.191 2.92v1.657l-8.29.828-6.34-2.721zm16.318-.639l-1.923-2.564 3.048-3.047v5.936a1.008 1.008 0 01-.429.834l-.509.35v-.946c0-.203-.066-.4-.187-.563zm-.75 5.25h-3.75a.914.914 0 01-.782-.479l4.625-.458a.918.918 0 00.657-.398l.187-.127v.469a.968.968 0 01-.937.993zM56.25 38.72v3.078l-4.197 4.196-11.813 1.82H19.76L7.946 45.995 3.75 41.799v-3.08l1.58-2.37 3.17-1.586 6.757 7.125c.115.122.261.21.422.257l6.563 1.875c.084.026.17.04.258.042h3.75a.938.938 0 00.419-.093l1.677-.844h3.307l1.678.844c.13.063.274.095.419.093h3.75a.96.96 0 00.258-.035l6.562-1.875a.943.943 0 00.405-.24l7.025-7.022 2.924 1.462 1.576 2.367zM53.825 30h2.783l.375.75-.188.188h-2.778l-.375-.75.183-.188z" mask="url(#da)"/><path d="M29.063 45a.938.938 0 101.875 0 .938.938 0 00-1.875 0z"/></svg><svg viewBox="0 0 16 12" id="checkbox-icon" xmlns="http://www.w3.org/2000/svg"><path fill-rule="evenodd" clip-rule="evenodd" d="M5.556 11.111L0 5.77l1.556-1.495 4 3.846L14 0l1.556 1.496-10 9.615z"/></svg><svg viewBox="0 0 60 60" id="contract-find-icon" xmlns="http://www.w3.org/2000/svg"><path d="M45.313 46.412a9.403 9.403 0 10-2.652 2.651l2.888 2.888a1.875 1.875 0 002.651-2.652l-2.887-2.887zM31.874 41.25a5.625 5.625 0 1111.25 0 5.625 5.625 0 01-11.25 0z"/><path d="M43.125 3.75h-26.25a5.625 5.625 0 00-5.625 5.625v41.25a5.625 5.625 0 005.625 5.625H30a1.875 1.875 0 100-3.75H16.875A1.875 1.875 0 0115 50.625V9.375A1.875 1.875 0 0116.875 7.5h26.25A1.875 1.875 0 0145 9.375V30a1.875 1.875 0 103.75 0V9.375a5.625 5.625 0 00-5.625-5.625z"/><path d="M22.5 16.875h15a1.875 1.875 0 100-3.75h-15a1.875 1.875 0 100 3.75zM39.375 24.375A1.875 1.875 0 0037.5 22.5h-15a1.875 1.875 0 100 3.75h15a1.875 1.875 0 001.875-1.875zM22.5 31.875a1.875 1.875 0 100 3.75h1.875a1.875 1.875 0 100-3.75H22.5z"/></svg><svg viewBox="0 0 60 60" id="contract-icon" xmlns="http://www.w3.org/2000/svg"><g clip-path="url(#gclip0_1081_336)"><path d="M59.968 26.206l-.003-2.615c-.004-2.472-2.04-4.488-4.538-4.495h-.012a4.52 4.52 0 00-3.218 1.327 4.427 4.427 0 00-1.31 3.158l.034 30.507c0 .346.103.684.294.972l2.764 4.155c.325.489.872.783 1.459.785h.005c.585 0 1.131-.291 1.458-.776l2.798-4.156c.196-.29.3-.633.3-.984l-.031-27.878zm-5.566-2.629c0-.25.1-.487.28-.667.192-.192.453-.298.733-.298h.003c.568.001 1.03.443 1.031.984l.002 1.177h-2.047l-.002-1.196zm.006 4.711h2.047l.021 19.101h-2.047l-.021-19.1zm1.044 26.793l-1.016-1.527-.003-2.649h2.047l.003 2.645-1.031 1.532zM41.57 0H5.274A5.28 5.28 0 00.001 5.273v49.454A5.28 5.28 0 005.274 60H41.57a5.28 5.28 0 005.273-5.273V5.273A5.28 5.28 0 0041.57 0zm1.758 54.727a1.76 1.76 0 01-1.758 1.757H5.274a1.76 1.76 0 01-1.757-1.757V5.273c0-.969.788-1.757 1.757-1.757H41.57c.97 0 1.758.788 1.758 1.757v49.454z"/><path d="M36.857 9.923H9.99a1.758 1.758 0 000 3.516h26.868a1.758 1.758 0 000-3.516zM36.857 17.506H9.99a1.758 1.758 0 000 3.515h26.868a1.758 1.758 0 000-3.515zM36.857 25.088H9.99a1.758 1.758 0 000 3.516h26.868a1.758 1.758 0 000-3.516zM26.564 32.67H9.99a1.758 1.758 0 000 3.516h16.575a1.758 1.758 0 100-3.515zM32.585 38.155c-4.29 0-7.778 3.438-7.778 7.664 0 4.226 3.489 7.665 7.778 7.665s7.778-3.439 7.778-7.665-3.489-7.664-7.778-7.664zm0 11.813c-2.35 0-4.263-1.86-4.263-4.149 0-2.287 1.913-4.149 4.263-4.149 2.35 0 4.263 1.862 4.263 4.15 0 2.287-1.913 4.148-4.263 4.148z"/></g><defs><clipPath id="gclip0_1081_336"><path d="M0 0h60v60H0z"/></clipPath></defs></svg><svg viewBox="0 0 36 36" id="cruise-control-icon" xmlns="http://www.w3.org/2000/svg"><g clip-path="url(#hclip0_274_1311)" fill-rule="evenodd" clip-rule="evenodd"><path d="M35.971 24.6v-.14c0-.88-.652-1.598-1.525-1.72l-.39-.055v1.248a.67.67 0 00.668.667h1.247z"/><path d="M3.955 29.496a.85.85 0 01-.832-.835l.029-5.066v-7.56c0-.572.467-1.04 1.04-1.04h10.81c.164.561.381 1.106.649 1.63l.222.436h8.24l1.782 4.434 7.362 1.033v1.405c0 .808.66 1.467 1.467 1.467H36v3.372a.74.74 0 01-.722.724h-.985a3.693 3.693 0 00-7.386 0H12.184a3.693 3.693 0 00-7.386 0h-.843zm13.705-5.098c-.527 0-.527.801 0 .801h1.194c.527 0 .527-.801 0-.801H17.66zM6.874 22.702v-5.03h4.02v5.03h-4.02zm5.421-5.03h3.519v5.03h-3.519v-5.03zm4.921 0h3.82l1.562 5.03h-5.382v-5.03zM2.322 19.212h-.73c-.876 0-1.592.716-1.592 1.591v3.038c0 .875.716 1.592 1.591 1.592h.73v-6.221z"/><path d="M8.49 26.603a2.893 2.893 0 110 5.786 2.893 2.893 0 010-5.786zm0 1.929a.965.965 0 110 1.929.965.965 0 010-1.93zM30.6 26.603a2.893 2.893 0 110 5.786 2.893 2.893 0 010-5.786zm0 1.928a.965.965 0 110 1.93.965.965 0 010-1.93zM24.52 3.612c1.295.058 2.516.4 3.604.964l-1.142 1.977a.398.398 0 10.69.397l1.141-1.975a8.751 8.751 0 012.64 2.639l-1.976 1.14a.398.398 0 10.397.691l1.977-1.142a8.653 8.653 0 01.965 3.604h-2.283a.4.4 0 000 .8h2.283a8.656 8.656 0 01-.939 3.554H16.363a8.656 8.656 0 01-.94-3.554h2.283a.4.4 0 000-.8h-2.282c.059-1.295.4-2.516.964-3.604l1.978 1.142a.398.398 0 00.397-.69l-1.976-1.141a8.753 8.753 0 012.64-2.64l1.14 1.976a.398.398 0 00.69-.397l-1.14-1.977a8.657 8.657 0 013.603-.965v2.283a.4.4 0 00.8 0V3.612zm-1.441 9.353l-.406-4.829 2.063 4.385a1.186 1.186 0 11-1.657.444z"/></g><defs><clipPath id="hclip0_274_1311"><path d="M0 0h36v36H0z"/></clipPath></defs></svg><svg viewBox="0 0 20 20" id="download-icon" xmlns="http://www.w3.org/2000/svg"><path fill-rule="evenodd" clip-rule="evenodd" d="M11 1a1 1 0 10-2 0v9.586L5.707 7.293a1 1 0 00-1.414 1.414l5 5 .006.007a.996.996 0 00.698.286h.006c.272 0 .518-.11.697-.286l.008-.008 5-4.999a1 1 0 00-1.415-1.414L11 10.586V1zM1 12a1 1 0 011 1v4a1 1 0 001 1h14a1 1 0 001-1v-4a1 1 0 112 0v4a3 3 0 01-3 3H3a3 3 0 01-3-3v-4a1 1 0 011-1z"/></svg><svg viewBox="0 0 60 60" id="logo-1" xmlns="http://www.w3.org/2000/svg"><defs><style>.jcls-1,.jcls-2{fill:none;stroke:#e2000f;stroke-miterlimit:10}.jcls-1{stroke-width:3.88px}.jcls-2{stroke-width:4.27px}</style></defs><g id="jСлой_1" data-name="Слой 1"><path class="jcls-1" d="M4.03 3.68h52.29v52.29H4.03zM56.32 3.68L3.68 56.32"/><path class="jcls-2" d="M4.03 3.68l52.29 52.29M3.68 30h52.64M15.29 14.94h30.13M16.57 43.43h27.34"/></g></svg><svg data-name="Шаблон Image.jpg" viewBox="0 0 60 60" id="logo-2" xmlns="http://www.w3.org/2000/svg"><path d="M1.13 1.13v57.74h57.74V1.13zm43.35 11.54h-29L8 5.15h44zm-4 4L30 27.15 19.55 16.7zM25.14 28h-20V8zm-20 4h20l-20 20zm24.86.85l9.08 9.08H20.92zM16.89 46h26.22L52 54.85H8zm18-14h20v20zm20-4h-20l20-20z"/></svg><svg viewBox="0 0 60 55" id="pay-icon" xmlns="http://www.w3.org/2000/svg"><mask id="la" maskUnits="userSpaceOnUse" x="0" y="0" width="60" height="55"><path d="M0 0h60v55H0z"/><path d="M56.1 1H11.633a2.895 2.895 0 00-2.9 2.89v13.564c-4.01.29-7.733 1.5-7.733 3.782v28.91C1 52.794 6.011 54 10.667 54c3.42 0 7.024-.654 8.7-2.049 1.676 1.395 5.28 2.049 8.7 2.049 4.655 0 9.666-1.206 9.666-3.855V34.727H56.1c1.602 0 2.9-1.294 2.9-2.89V3.89A2.895 2.895 0 0056.1 1zM10.667 3.89c0-.531.433-.963.966-.963H56.1c.534 0 .967.432.967.964V22.2H20.333v-.964c0-2.648-5.01-3.854-9.666-3.854V3.89zm46.4 24.092H34.722a21.057 21.057 0 00-6.655-.964 18.425 18.425 0 00-7.734 1.422v-4.313h36.734v3.855zM35.8 45.327c0 .496-2.66 1.928-7.733 1.928-5.074 0-7.734-1.432-7.734-1.928v-2.386a18.425 18.425 0 007.734 1.423c2.65.087 5.288-.398 7.733-1.423v2.386zm0-14.454c0 .495-2.66 1.927-7.733 1.927-5.074 0-7.734-1.432-7.734-1.927 0-.496 2.66-1.928 7.734-1.928s7.733 1.432 7.733 1.928zm0 4.818c0 .495-2.66 1.927-7.733 1.927-5.074 0-7.734-1.432-7.734-1.927v-2.386a18.426 18.426 0 007.734 1.422c2.65.088 5.288-.397 7.733-1.422v2.386zm-17.4-9.637c0 .496-2.66 1.928-7.733 1.928-5.074 0-7.734-1.432-7.734-1.927v-2.386a18.425 18.425 0 007.734 1.422c2.65.088 5.288-.398 7.733-1.422v2.386zm-7.733 3.855c2.65.088 5.288-.397 7.733-1.422v2.386c0 .495-2.66 1.927-7.733 1.927-5.074 0-7.734-1.432-7.734-1.927v-2.386a18.426 18.426 0 007.734 1.422zm0 4.818c2.65.088 5.288-.397 7.733-1.422v2.386c0 .495-2.66 1.927-7.733 1.927-5.074 0-7.734-1.432-7.734-1.927v-2.386a18.426 18.426 0 007.734 1.422zm0 4.819c2.65.087 5.288-.398 7.733-1.423v2.386c0 .495-2.66 1.927-7.733 1.927-5.074 0-7.734-1.432-7.734-1.927v-2.386a18.426 18.426 0 007.734 1.422zM2.933 42.94a18.425 18.425 0 007.734 1.423c2.65.087 5.288-.398 7.733-1.423v2.386c0 .496-2.66 1.928-7.733 1.928-5.074 0-7.734-1.432-7.734-1.928v-2.386zM35.8 40.51c0 .495-2.66 1.927-7.733 1.927-5.074 0-7.734-1.432-7.734-1.927v-2.386a18.426 18.426 0 007.734 1.422c2.65.088 5.288-.397 7.733-1.422v2.386zm-25.133-21.2c5.074 0 7.733 1.432 7.733 1.927 0 .496-2.66 1.928-7.733 1.928-5.074 0-7.734-1.432-7.734-1.928 0-.495 2.66-1.927 7.734-1.927zm0 32.764c-5.074 0-7.734-1.432-7.734-1.928V47.76a18.425 18.425 0 007.734 1.423c2.65.088 5.288-.398 7.733-1.422v2.386c0 .495-2.66 1.927-7.733 1.927zm17.4 0c-5.074 0-7.734-1.432-7.734-1.928V47.76a18.425 18.425 0 007.734 1.423c2.65.088 5.288-.398 7.733-1.422v2.386c0 .495-2.66 1.927-7.733 1.927zM56.1 32.8H37.733v-1.927a2.018 2.018 0 00-.25-.964h19.584v1.927a.965.965 0 01-.967.964z"/></mask><path d="M56.1 1H11.633a2.895 2.895 0 00-2.9 2.89v13.564c-4.01.29-7.733 1.5-7.733 3.782v28.91C1 52.794 6.011 54 10.667 54c3.42 0 7.024-.654 8.7-2.049 1.676 1.395 5.28 2.049 8.7 2.049 4.655 0 9.666-1.206 9.666-3.855V34.727H56.1c1.602 0 2.9-1.294 2.9-2.89V3.89A2.895 2.895 0 0056.1 1zM10.667 3.89c0-.531.433-.963.966-.963H56.1c.534 0 .967.432.967.964V22.2H20.333v-.964c0-2.648-5.01-3.854-9.666-3.854V3.89zm46.4 24.092H34.722a21.057 21.057 0 00-6.655-.964 18.425 18.425 0 00-7.734 1.422v-4.313h36.734v3.855zM35.8 45.327c0 .496-2.66 1.928-7.733 1.928-5.074 0-7.734-1.432-7.734-1.928v-2.386a18.425 18.425 0 007.734 1.423c2.65.087 5.288-.398 7.733-1.423v2.386zm0-14.454c0 .495-2.66 1.927-7.733 1.927-5.074 0-7.734-1.432-7.734-1.927 0-.496 2.66-1.928 7.734-1.928s7.733 1.432 7.733 1.928zm0 4.818c0 .495-2.66 1.927-7.733 1.927-5.074 0-7.734-1.432-7.734-1.927v-2.386a18.426 18.426 0 007.734 1.422c2.65.088 5.288-.397 7.733-1.422v2.386zm-17.4-9.637c0 .496-2.66 1.928-7.733 1.928-5.074 0-7.734-1.432-7.734-1.927v-2.386a18.425 18.425 0 007.734 1.422c2.65.088 5.288-.398 7.733-1.422v2.386zm-7.733 3.855c2.65.088 5.288-.397 7.733-1.422v2.386c0 .495-2.66 1.927-7.733 1.927-5.074 0-7.734-1.432-7.734-1.927v-2.386a18.426 18.426 0 007.734 1.422zm0 4.818c2.65.088 5.288-.397 7.733-1.422v2.386c0 .495-2.66 1.927-7.733 1.927-5.074 0-7.734-1.432-7.734-1.927v-2.386a18.426 18.426 0 007.734 1.422zm0 4.819c2.65.087 5.288-.398 7.733-1.423v2.386c0 .495-2.66 1.927-7.733 1.927-5.074 0-7.734-1.432-7.734-1.927v-2.386a18.426 18.426 0 007.734 1.422zM2.933 42.94a18.425 18.425 0 007.734 1.423c2.65.087 5.288-.398 7.733-1.423v2.386c0 .496-2.66 1.928-7.733 1.928-5.074 0-7.734-1.432-7.734-1.928v-2.386zM35.8 40.51c0 .495-2.66 1.927-7.733 1.927-5.074 0-7.734-1.432-7.734-1.927v-2.386a18.426 18.426 0 007.734 1.422c2.65.088 5.288-.397 7.733-1.422v2.386zm-25.133-21.2c5.074 0 7.733 1.432 7.733 1.927 0 .496-2.66 1.928-7.733 1.928-5.074 0-7.734-1.432-7.734-1.928 0-.495 2.66-1.927 7.734-1.927zm0 32.764c-5.074 0-7.734-1.432-7.734-1.928V47.76a18.425 18.425 0 007.734 1.423c2.65.088 5.288-.398 7.733-1.422v2.386c0 .495-2.66 1.927-7.733 1.927zm17.4 0c-5.074 0-7.734-1.432-7.734-1.928V47.76a18.425 18.425 0 007.734 1.423c2.65.088 5.288-.398 7.733-1.422v2.386c0 .495-2.66 1.927-7.733 1.927zM56.1 32.8H37.733v-1.927a2.018 2.018 0 00-.25-.964h19.584v1.927a.965.965 0 01-.967.964z"/><path d="M56.1 1H11.633a2.895 2.895 0 00-2.9 2.89v13.564c-4.01.29-7.733 1.5-7.733 3.782v28.91C1 52.794 6.011 54 10.667 54c3.42 0 7.024-.654 8.7-2.049 1.676 1.395 5.28 2.049 8.7 2.049 4.655 0 9.666-1.206 9.666-3.855V34.727H56.1c1.602 0 2.9-1.294 2.9-2.89V3.89A2.895 2.895 0 0056.1 1zM10.667 3.89c0-.531.433-.963.966-.963H56.1c.534 0 .967.432.967.964V22.2H20.333v-.964c0-2.648-5.01-3.854-9.666-3.854V3.89zm46.4 24.092H34.722a21.057 21.057 0 00-6.655-.964 18.425 18.425 0 00-7.734 1.422v-4.313h36.734v3.855zM35.8 45.327c0 .496-2.66 1.928-7.733 1.928-5.074 0-7.734-1.432-7.734-1.928v-2.386a18.425 18.425 0 007.734 1.423c2.65.087 5.288-.398 7.733-1.423v2.386zm0-14.454c0 .495-2.66 1.927-7.733 1.927-5.074 0-7.734-1.432-7.734-1.927 0-.496 2.66-1.928 7.734-1.928s7.733 1.432 7.733 1.928zm0 4.818c0 .495-2.66 1.927-7.733 1.927-5.074 0-7.734-1.432-7.734-1.927v-2.386a18.426 18.426 0 007.734 1.422c2.65.088 5.288-.397 7.733-1.422v2.386zm-17.4-9.637c0 .496-2.66 1.928-7.733 1.928-5.074 0-7.734-1.432-7.734-1.927v-2.386a18.425 18.425 0 007.734 1.422c2.65.088 5.288-.398 7.733-1.422v2.386zm-7.733 3.855c2.65.088 5.288-.397 7.733-1.422v2.386c0 .495-2.66 1.927-7.733 1.927-5.074 0-7.734-1.432-7.734-1.927v-2.386a18.426 18.426 0 007.734 1.422zm0 4.818c2.65.088 5.288-.397 7.733-1.422v2.386c0 .495-2.66 1.927-7.733 1.927-5.074 0-7.734-1.432-7.734-1.927v-2.386a18.426 18.426 0 007.734 1.422zm0 4.819c2.65.087 5.288-.398 7.733-1.423v2.386c0 .495-2.66 1.927-7.733 1.927-5.074 0-7.734-1.432-7.734-1.927v-2.386a18.426 18.426 0 007.734 1.422zM2.933 42.94a18.425 18.425 0 007.734 1.423c2.65.087 5.288-.398 7.733-1.423v2.386c0 .496-2.66 1.928-7.733 1.928-5.074 0-7.734-1.432-7.734-1.928v-2.386zM35.8 40.51c0 .495-2.66 1.927-7.733 1.927-5.074 0-7.734-1.432-7.734-1.927v-2.386a18.426 18.426 0 007.734 1.422c2.65.088 5.288-.397 7.733-1.422v2.386zm-25.133-21.2c5.074 0 7.733 1.432 7.733 1.927 0 .496-2.66 1.928-7.733 1.928-5.074 0-7.734-1.432-7.734-1.928 0-.495 2.66-1.927 7.734-1.927zm0 32.764c-5.074 0-7.734-1.432-7.734-1.928V47.76a18.425 18.425 0 007.734 1.423c2.65.088 5.288-.398 7.733-1.422v2.386c0 .495-2.66 1.927-7.733 1.927zm17.4 0c-5.074 0-7.734-1.432-7.734-1.928V47.76a18.425 18.425 0 007.734 1.423c2.65.088 5.288-.398 7.733-1.422v2.386c0 .495-2.66 1.927-7.733 1.927zM56.1 32.8H37.733v-1.927a2.018 2.018 0 00-.25-.964h19.584v1.927a.965.965 0 01-.967.964z" mask="url(#la)"/><path d="M50 15.7a5.2 5.2 0 100-10.4 5.15 5.15 0 00-2.989.967 5.2 5.2 0 100 8.466A5.15 5.15 0 0050 15.7zm2.8-5.2a2.8 2.8 0 11-5.6 0 2.8 2.8 0 015.6 0zM44 7.7c.498.003.986.14 1.411.395a5.032 5.032 0 000 4.808A2.794 2.794 0 1143.999 7.7zM24 19.8h1a1.3 1.3 0 100-2.6h-1a1.3 1.3 0 100 2.6zM29 19.8h1a1.3 1.3 0 100-2.6h-1a1.3 1.3 0 100 2.6zM34 19.8h1a1.3 1.3 0 100-2.6h-1a1.3 1.3 0 100 2.6z"/></svg><svg viewBox="0 0 24 24" id="phone-icon" xmlns="http://www.w3.org/2000/svg"><path d="M24 18.954c0 .307-.057.708-.17 1.202-.114.495-.233.884-.358 1.168-.239.568-.932 1.17-2.08 1.807-1.068.58-2.125.869-3.17.869-.307 0-.606-.02-.895-.06-.29-.04-.617-.11-.98-.213a13.939 13.939 0 01-.81-.247 68.2 68.2 0 01-.946-.35c-.455-.17-.733-.272-.835-.306a15.444 15.444 0 01-2.983-1.415c-1.455-.898-2.958-2.122-4.509-3.673-1.55-1.551-2.775-3.054-3.673-4.509a15.436 15.436 0 01-1.415-2.983c-.034-.102-.136-.38-.307-.835a67.14 67.14 0 01-.35-.946 13.896 13.896 0 01-.246-.81 7.368 7.368 0 01-.213-.98C.02 6.383 0 6.085 0 5.778c0-1.045.29-2.102.87-3.17C1.505 1.46 2.107.767 2.675.528 2.96.403 3.35.284 3.844.17 4.338.057 4.739 0 5.045 0c.16 0 .279.017.358.051.205.068.506.5.904 1.296.125.216.295.522.511.92.216.398.415.759.597 1.082.182.324.358.628.528.912.034.046.134.188.298.426.165.24.287.44.367.606.08.164.12.326.12.485 0 .228-.163.512-.487.853a8.31 8.31 0 01-1.056.937c-.381.284-.733.585-1.057.904-.324.318-.486.58-.486.784 0 .102.028.23.085.383.057.154.105.27.145.35.04.08.12.215.239.409.12.193.184.3.196.324.863 1.556 1.852 2.892 2.966 4.005 1.113 1.114 2.449 2.102 4.005 2.966.023.011.131.077.324.196.194.12.33.2.41.239.079.04.195.088.349.145.153.056.281.085.383.085.205 0 .466-.162.784-.486.319-.324.62-.676.904-1.057.284-.38.596-.733.937-1.057.341-.323.625-.485.853-.485.159 0 .32.04.485.119.165.08.367.202.605.367.24.164.381.264.427.298.284.17.588.346.912.528.323.182.684.38 1.082.597.398.216.704.386.92.511.796.398 1.228.699 1.296.904.034.08.051.198.051.357z"/></svg><svg viewBox="0 0 60 60" id="protection-icon" xmlns="http://www.w3.org/2000/svg"><g clip-path="url(#nclip0_1081_361)"><path d="M51.094 7.031h-4.12c-5.781 0-11.515-2.418-15.731-6.633a1.757 1.757 0 00-2.486 0c-4.216 4.215-9.95 6.633-15.732 6.633H8.906c-.97 0-1.758.787-1.758 1.758v21.094c0 7.036 2.207 12.98 6.745 18.17 3.803 4.35 8.598 7.379 12.45 9.812.957.604 1.86 1.174 2.682 1.723a1.756 1.756 0 001.95 0c.796-.53 1.683-1.09 2.621-1.681 7.668-4.833 19.256-12.137 19.256-28.024V8.789c0-.97-.787-1.758-1.758-1.758zm-1.758 22.852c0 13.948-10.18 20.364-17.614 25.05-.596.375-1.171.737-1.722 1.091-.57-.367-1.164-.743-1.78-1.131-7.409-4.68-17.556-11.09-17.556-25.01V10.547h2.361c6.153 0 12.25-2.35 16.975-6.499 4.725 4.149 10.822 6.499 16.975 6.499h2.361v19.336z"/><path d="M30 14.063c-8.723 0-15.82 7.096-15.82 15.82 0 8.723 7.097 15.82 15.82 15.82 8.723 0 15.82-7.097 15.82-15.82 0-8.724-7.096-15.82-15.82-15.82zm0 28.124c-6.785 0-12.305-5.52-12.305-12.304 0-6.785 5.52-12.305 12.305-12.305s12.305 5.52 12.305 12.305S36.785 42.188 30 42.188z"/><path d="M35.788 25.124l-7.546 7.546-4.03-4.03a1.757 1.757 0 10-2.486 2.486l5.273 5.273a1.75 1.75 0 001.243.515c.45 0 .9-.172 1.243-.515l8.79-8.789a1.758 1.758 0 10-2.487-2.486z"/></g><defs><clipPath id="nclip0_1081_361"><path d="M0 0h60v60H0z"/></clipPath></defs></svg><svg viewBox="0 0 60 60" id="refund-icon" xmlns="http://www.w3.org/2000/svg"><g clip-path="url(#oclip0_1081_101)"><path d="M11.678 36.643c-6.435 0-11.67 5.235-11.67 11.67s5.235 11.67 11.67 11.67 11.67-5.235 11.67-11.67-5.235-11.67-11.67-11.67zm0 19.47c-4.301 0-7.8-3.5-7.8-7.8 0-4.301 3.499-7.8 7.8-7.8s7.8 3.499 7.8 7.8c0 4.3-3.499 7.8-7.8 7.8z"/><path d="M54.066 18.261v-2.66c0-3.201-2.604-5.805-5.805-5.805h-3.386V4.837A4.843 4.843 0 0040.037 0H26.01a4.843 4.843 0 00-4.837 4.837v4.959H9.682c-5.334 0-9.674 4.34-9.674 9.675v15.6a1.935 1.935 0 103.87 0v-15.6c0-3.201 2.604-5.805 5.805-5.805h11.489v4.595h-5.564a1.935 1.935 0 100 3.87h38.579c1.067 0 1.935.874 1.935 1.947v30.089a1.943 1.943 0 01-1.935 1.947H31.51a1.935 1.935 0 100 3.87h22.676c3.2 0 5.805-2.61 5.805-5.817V24.078c0-3.065-2.419-5.817-5.926-5.817zm-5.805-4.595c1.067 0 1.935.868 1.935 1.935v2.66h-5.321v-4.595h3.386zm-7.256-8.829v13.424h-8.647V3.87h7.68c.533 0 .967.434.967.967zm-15.964 0c0-.533.434-.967.968-.967h2.479V18.26h-3.447V4.837z"/><path d="M51.406 39.485a3.693 3.693 0 00-3.688-3.688 3.693 3.693 0 00-3.689 3.688 3.693 3.693 0 003.689 3.689 3.693 3.693 0 003.688-3.689zM23.981 57.309c-1.035 2.492 3.065 4.005 3.684 1.119.451-2.337-2.852-3.217-3.684-1.12zM8 48l3 2.5 4.5-4.5"/></g><defs><clipPath id="oclip0_1081_101"><path d="M0 0h60v60H0z"/></clipPath></defs></svg><svg viewBox="0 0 14 23" id="slider-arrow" xmlns="http://www.w3.org/2000/svg"><path fill-rule="evenodd" clip-rule="evenodd" d="M11.44.94l2.12 2.12-8.438 8.44 8.439 8.44-2.121 2.12L.879 11.5 11.439.94z"/></svg><svg viewBox="0 0 36 36" id="success-icon" xmlns="http://www.w3.org/2000/svg"><g clip-path="url(#qclip0_274_924)"><g clip-path="url(#qclip1_274_924)"><path d="M15.378 28.772a4.34 4.34 0 01-2.795-.057 4.34 4.34 0 01-2.177-1.752 4.34 4.34 0 01-2.875-1.255L5.18 30.63a1.068 1.068 0 001.2 1.502l4.713-1.069 2.13 4.34c.18.365.551.597.958.597h.006c.41-.002.782-.239.958-.608l2.734-5.72a4.34 4.34 0 01-2.501-.9zM28.247 25.953a4.34 4.34 0 01-2.607 1.01 4.338 4.338 0 01-2.177 1.752 4.337 4.337 0 01-2.795.057 4.34 4.34 0 01-2.501.9l2.733 5.72c.177.37.55.605.959.608h.005c.407 0 .78-.232.959-.598l2.13-4.339 4.713 1.069a1.067 1.067 0 001.2-1.502l-2.352-4.921a4.301 4.301 0 01-.267.244zM31.15 13.112c.383-.49.54-1.122.433-1.734a2.202 2.202 0 00-1-1.481 1.068 1.068 0 01-.45-1.235 2.2 2.2 0 00-.186-1.777 2.2 2.2 0 00-1.445-1.05 1.068 1.068 0 01-.845-1.007 2.201 2.201 0 00-.783-1.607 2.2 2.2 0 00-1.718-.492 1.068 1.068 0 01-1.139-.657A2.2 2.2 0 0022.732.83a2.2 2.2 0 00-1.782.126c-.433.23-.967.135-1.295-.229A2.2 2.2 0 0018.023 0a2.2 2.2 0 00-1.632.727 1.069 1.069 0 01-1.295.229A2.2 2.2 0 0013.314.83a2.2 2.2 0 00-1.286 1.242 1.068 1.068 0 01-1.138.657 2.2 2.2 0 00-1.718.492 2.2 2.2 0 00-.783 1.607c-.017.49-.365.905-.845 1.007a2.2 2.2 0 00-1.446 1.05 2.2 2.2 0 00-.186 1.777c.151.466-.034.975-.45 1.235a2.2 2.2 0 00-1 1.481c-.107.612.05 1.244.434 1.734.301.386.301.928 0 1.315a2.201 2.201 0 00-.433 1.733 2.201 2.201 0 001 1.482c.415.26.6.768.45 1.235a2.2 2.2 0 00.185 1.777c.311.538.838.92 1.446 1.05.48.102.828.517.845 1.007a2.2 2.2 0 00.783 1.606 2.2 2.2 0 001.718.492c.485-.068.955.203 1.138.658.234.576.702 1.029 1.286 1.241a2.202 2.202 0 001.782-.125 1.064 1.064 0 011.295.229 2.2 2.2 0 001.632.726c.62 0 1.216-.265 1.632-.727a1.068 1.068 0 011.295-.228 2.2 2.2 0 001.782.125 2.2 2.2 0 001.285-1.241 1.068 1.068 0 011.139-.658 2.201 2.201 0 001.718-.492c.475-.399.76-.984.783-1.606.017-.49.365-.905.845-1.007a2.202 2.202 0 001.446-1.05c.31-.538.378-1.186.186-1.777a1.068 1.068 0 01.45-1.235c.527-.33.891-.87 1-1.482a2.202 2.202 0 00-.434-1.733 1.068 1.068 0 010-1.315zM18.023 23.128c-5.16 0-9.36-4.198-9.36-9.359 0-5.16 4.2-9.359 9.36-9.359 5.16 0 9.359 4.199 9.359 9.36 0 5.16-4.199 9.358-9.36 9.358z"/><path d="M18.023 6.546c-3.983 0-7.223 3.24-7.223 7.223 0 3.983 3.24 7.223 7.223 7.223 3.983 0 7.222-3.24 7.222-7.223 0-3.982-3.24-7.223-7.222-7.223zm-4.512 5.898a1.068 1.068 0 011.51 0l2.13 2.129 3.873-3.873a1.068 1.068 0 111.51 1.51l-4.628 4.629a1.069 1.069 0 01-1.51 0l-2.885-2.884a1.068 1.068 0 010-1.51z"/></g></g><defs><clipPath id="qclip0_274_924"><path d="M0 0h36v36H0z"/></clipPath><clipPath id="qclip1_274_924"><path d="M0 0h36v36H0z"/></clipPath></defs></svg><svg viewBox="0 0 31 30" id="telegram-icon" xmlns="http://www.w3.org/2000/svg"><path fill-rule="evenodd" clip-rule="evenodd" d="M15.969 30c8.284 0 15-6.716 15-15 0-8.284-6.716-15-15-15-8.284 0-15 6.716-15 15 0 8.284 6.716 15 15 15zm6.593-20.417c.116-1.314-1.272-.773-1.272-.773-1.025.425-2.081.855-3.15 1.291-3.311 1.35-6.732 2.746-9.647 4.12-1.58.58-.655 1.16-.655 1.16l2.505.773c1.157.348 1.773-.04 1.773-.04l5.397-3.67c1.927-1.315 1.464-.233 1.002.231l-4.047 3.865c-.617.541-.309 1.005-.04 1.237.766.674 2.647 1.909 3.468 2.448.214.14.355.233.388.257.192.155 1.233.85 1.927.696.694-.155.77-1.044.77-1.044l.926-6.068c.138-1.053.298-2.065.425-2.874.12-.764.211-1.346.23-1.609z"/></svg><svg viewBox="0 0 36 36" id="truck-icon" xmlns="http://www.w3.org/2000/svg"><g clip-path="url(#sclip0_274_934)"><g clip-path="url(#sclip1_274_934)"><path d="M10.715 7.138l.974.97V4.7H8.74v3.41l.975-.971a.708.708 0 011 0z"/><path d="M18.05 5.407a.705.705 0 00-.709-.708h-4.235v5.113a.7.7 0 01-.708.708.728.728 0 01-.503-.205l-1.679-1.678-1.685 1.678a.705.705 0 01-.772.155.712.712 0 01-.432-.658V4.7H3.084a.71.71 0 00-.708.708v7.925h5.893l-.326-.326a.705.705 0 11.999-.999l1.537 1.53a.707.707 0 01.156.772 1.02 1.02 0 01-.156.234l-1.537 1.53a.68.68 0 01-.496.206.706.706 0 01-.503-1.205l.326-.326H2.376v4.675H18.05V5.407zM32.718 20.84H1.71a.71.71 0 00-.708.708v5.637c0 .39.319.708.708.708h2.288A4.824 4.824 0 018.82 23.07a4.829 4.829 0 014.823 4.823h8.719a4.824 4.824 0 014.823-4.823 4.829 4.829 0 014.824 4.823h2.28a.706.706 0 00.708-.708v-4.058c0-1.26-1.02-2.287-2.28-2.287zM33.242 12.9a.733.733 0 00-.141-.433l-3.435-4.49a.705.705 0 00-.56-.283h-9.094a.71.71 0 00-.708.708v11.02h13.938V12.9zm-3.151 1.954a.71.71 0 01-.709.709h-6.218a.71.71 0 01-.709-.709v-4.001c0-.397.32-.709.709-.709h4.377c.226 0 .432.1.566.277l1.835 2.408c.099.12.148.276.148.432v1.593z"/><path d="M27.186 24.485a3.408 3.408 0 100 6.816 3.408 3.408 0 000-6.816zM9.608 31.2a3.407 3.407 0 10-1.567-6.633A3.407 3.407 0 009.608 31.2z"/></g></g><defs><clipPath id="sclip0_274_934"><path d="M0 0h36v36H0z"/></clipPath><clipPath id="sclip1_274_934"><path d="M0 0h36v36H0z"/></clipPath></defs></svg><svg viewBox="0 0 36 36" id="way-icon" xmlns="http://www.w3.org/2000/svg"><g clip-path="url(#tclip0_274_1323)"><g clip-path="url(#tclip1_274_1323)"><g clip-path="url(#tclip2_274_1323)"><path d="M13.186 0a2.531 2.531 0 00-2.412 1.755L.722 32.67a2.553 2.553 0 00.36 2.284A2.51 2.51 0 003.135 36H5.18l8.188-36h-.182zM19.034 0v3.351a1.055 1.055 0 01-2.11 0V0h-1.392L7.344 36h9.576v-3.351a1.055 1.055 0 012.11 0V36h10.303L21.145 0h-2.111zm-2.116 9.984V7.125a1.055 1.055 0 012.11 0v2.86a1.055 1.055 0 01-2.11 0zm2.114 3.188v3a1.055 1.055 0 01-2.11 0v-3a1.055 1.055 0 012.11 0zM16.92 19.36a1.055 1.055 0 012.11 0v3a1.055 1.055 0 01-2.11 0v-3zm2.114 9.257a1.055 1.055 0 11-2.11 0v-3a1.055 1.055 0 012.11 0v3zM35.29 32.716L25.87 1.8A2.524 2.524 0 0023.443 0h-.134l8.187 36h1.367c.811 0 1.554-.374 2.037-1.027a2.523 2.523 0 00.39-2.257z"/></g></g></g><defs><clipPath id="tclip0_274_1323"><path d="M0 0h36v36H0z"/></clipPath><clipPath id="tclip1_274_1323"><path d="M0 0h36v36H0z"/></clipPath><clipPath id="tclip2_274_1323"><path d="M0 0h36v36H0z"/></clipPath></defs></svg><svg viewBox="0 0 31 30" id="whatsapp-icon" xmlns="http://www.w3.org/2000/svg"><g clip-path="url(#uclip0_274_786)"><path fill-rule="evenodd" clip-rule="evenodd" d="M15.969 30c8.284 0 15-6.716 15-15 0-8.284-6.716-15-15-15-8.285 0-15 6.716-15 15 0 8.284 6.715 15 15 15zm5.929-21.302A8.122 8.122 0 0016.114 6.3c-4.507 0-8.175 3.668-8.176 8.176-.001 1.44.375 2.847 1.09 4.087L7.869 22.8l4.335-1.137a8.168 8.168 0 003.907.995h.003c4.507 0 8.175-3.668 8.177-8.176a8.124 8.124 0 00-2.392-5.784zm-2.057 7.49c-.204-.103-1.208-.597-1.396-.665-.187-.068-.323-.102-.46.102-.136.205-.527.665-.646.801-.12.137-.239.154-.443.051-.033-.016-.079-.036-.135-.06-.288-.125-.855-.371-1.508-.954-.607-.541-1.017-1.21-1.136-1.415-.12-.204-.013-.315.09-.417.06-.06.131-.147.201-.232.036-.043.07-.086.105-.126.086-.1.124-.178.175-.281l.029-.06c.068-.136.034-.255-.017-.357-.034-.069-.228-.54-.403-.967l-.227-.55c-.146-.352-.295-.351-.414-.35h-.046a8.088 8.088 0 00-.391-.008.75.75 0 00-.545.256l-.04.043c-.213.227-.675.72-.675 1.661 0 1.003.728 1.972.834 2.112v.001l.036.05c.244.35 1.538 2.208 3.454 3.035.488.21.868.336 1.165.43.49.156.935.134 1.287.081.392-.058 1.208-.494 1.379-.97.17-.478.17-.887.119-.972-.041-.07-.138-.116-.281-.185a8.681 8.681 0 01-.11-.054z"/></g><defs><clipPath id="uclip0_274_786"><path transform="translate(.969)" d="M0 0h30v30H0z"/></clipPath></defs></svg><svg viewBox="0 0 31 30" id="youtube-icon" xmlns="http://www.w3.org/2000/svg"><path fill-rule="evenodd" clip-rule="evenodd" d="M15.969 30c8.284 0 15-6.716 15-15 0-8.284-6.716-15-15-15-8.285 0-15 6.716-15 15 0 8.284 6.715 15 15 15zm4.158-21.334c2.29 0 3.49.315 4.14 1.088.653.775.702 1.964.702 3.688v3.116c0 1.976-.312 3.117-1.042 3.816-.712.682-1.813.96-3.8.96H11.81c-4.093 0-4.842-1.608-4.842-4.776v-3.116c0-1.635 0-2.816.63-3.618.648-.822 1.868-1.158 4.211-1.158h8.317zm-5.379 8.738l3.777-1.974a.58.58 0 00-.002-1.03l-3.776-1.96a.58.58 0 00-.848.515v3.934a.58.58 0 00.85.515z"/></svg></svg>