<svg width="60" height="55" viewBox="0 0 60 55" fill="none" xmlns="http://www.w3.org/2000/svg">
<mask id="path-1-outside-1_1081_372" maskUnits="userSpaceOnUse" x="0" y="0" width="60" height="55" fill="black">
<rect fill="white" width="60" height="55"/>
<path d="M56.1 1H11.6333C10.0317 1 8.73333 2.2943 8.73333 3.89091V17.4541C4.7236 17.7432 1 18.9535 1 21.2364V50.1455C1 52.7935 6.0112 54 10.6667 54C14.0867 54 17.6905 53.3457 19.3667 51.9513C21.0429 53.3457 24.6466 54 28.0667 54C32.7221 54 37.7333 52.7935 37.7333 50.1455V34.7273H56.1C57.7016 34.7273 59 33.433 59 31.8364V3.89091C59 2.2943 57.7016 1 56.1 1ZM10.6667 3.89091C10.6667 3.35871 11.0995 2.92727 11.6333 2.92727H56.1C56.6339 2.92727 57.0667 3.35871 57.0667 3.89091V22.2H20.3333V21.2364C20.3333 18.5883 15.3221 17.3818 10.6667 17.3818V3.89091ZM57.0667 27.9818H34.7222C32.57 27.3062 30.3227 26.9808 28.0667 27.0182C25.4161 26.9304 22.7779 27.4156 20.3333 28.4405V24.1273H57.0667V27.9818ZM35.8 45.3273C35.8 45.8226 33.1407 47.2545 28.0667 47.2545C22.9926 47.2545 20.3333 45.8226 20.3333 45.3273V42.9413C22.7779 43.9662 25.4161 44.4514 28.0667 44.3636C30.7172 44.4514 33.3554 43.9662 35.8 42.9413V45.3273ZM35.8 30.8727C35.8 31.368 33.1407 32.8 28.0667 32.8C22.9926 32.8 20.3333 31.368 20.3333 30.8727C20.3333 30.3774 22.9926 28.9455 28.0667 28.9455C33.1407 28.9455 35.8 30.3774 35.8 30.8727ZM35.8 35.6909C35.8 36.1862 33.1407 37.6182 28.0667 37.6182C22.9926 37.6182 20.3333 36.1862 20.3333 35.6909V33.3049C22.7779 34.3298 25.4161 34.815 28.0667 34.7273C30.7172 34.815 33.3554 34.3298 35.8 33.3049V35.6909ZM18.4 26.0545C18.4 26.5499 15.7407 27.9818 10.6667 27.9818C5.59263 27.9818 2.93333 26.5499 2.93333 26.0545V23.6686C5.37794 24.6935 8.01613 25.1787 10.6667 25.0909C13.3172 25.1787 15.9554 24.6935 18.4 23.6686V26.0545ZM10.6667 29.9091C13.3172 29.9969 15.9554 29.5116 18.4 28.4868V30.8727C18.4 31.368 15.7407 32.8 10.6667 32.8C5.59263 32.8 2.93333 31.368 2.93333 30.8727V28.4868C5.37794 29.5116 8.01613 29.9969 10.6667 29.9091ZM10.6667 34.7273C13.3172 34.815 15.9554 34.3298 18.4 33.3049V35.6909C18.4 36.1862 15.7407 37.6182 10.6667 37.6182C5.59263 37.6182 2.93333 36.1862 2.93333 35.6909V33.3049C5.37794 34.3298 8.01613 34.815 10.6667 34.7273ZM10.6667 39.5455C13.3172 39.6332 15.9554 39.148 18.4 38.1231V40.5091C18.4 41.0044 15.7407 42.4364 10.6667 42.4364C5.59263 42.4364 2.93333 41.0044 2.93333 40.5091V38.1231C5.37794 39.148 8.01613 39.6332 10.6667 39.5455ZM2.93333 42.9413C5.37794 43.9662 8.01613 44.4514 10.6667 44.3636C13.3172 44.4514 15.9554 43.9662 18.4 42.9413V45.3273C18.4 45.8226 15.7407 47.2545 10.6667 47.2545C5.59263 47.2545 2.93333 45.8226 2.93333 45.3273V42.9413ZM35.8 40.5091C35.8 41.0044 33.1407 42.4364 28.0667 42.4364C22.9926 42.4364 20.3333 41.0044 20.3333 40.5091V38.1231C22.7779 39.148 25.4161 39.6332 28.0667 39.5455C30.7172 39.6332 33.3554 39.148 35.8 38.1231V40.5091ZM10.6667 19.3091C15.7407 19.3091 18.4 20.7411 18.4 21.2364C18.4 21.7317 15.7407 23.1636 10.6667 23.1636C5.59263 23.1636 2.93333 21.7317 2.93333 21.2364C2.93333 20.7411 5.59263 19.3091 10.6667 19.3091ZM10.6667 52.0727C5.59263 52.0727 2.93333 50.6408 2.93333 50.1455V47.7595C5.37794 48.7844 8.01613 49.2696 10.6667 49.1818C13.3172 49.2696 15.9554 48.7844 18.4 47.7595V50.1455C18.4 50.6408 15.7407 52.0727 10.6667 52.0727ZM28.0667 52.0727C22.9926 52.0727 20.3333 50.6408 20.3333 50.1455V47.7595C22.7779 48.7844 25.4161 49.2696 28.0667 49.1818C30.7172 49.2696 33.3554 48.7844 35.8 47.7595V50.1455C35.8 50.6408 33.1407 52.0727 28.0667 52.0727ZM56.1 32.8H37.7333V30.8727C37.732 30.5358 37.6462 30.2046 37.4839 29.9091H57.0667V31.8364C57.0667 32.3686 56.6339 32.8 56.1 32.8Z"/>
</mask>
<path d="M56.1 1H11.6333C10.0317 1 8.73333 2.2943 8.73333 3.89091V17.4541C4.7236 17.7432 1 18.9535 1 21.2364V50.1455C1 52.7935 6.0112 54 10.6667 54C14.0867 54 17.6905 53.3457 19.3667 51.9513C21.0429 53.3457 24.6466 54 28.0667 54C32.7221 54 37.7333 52.7935 37.7333 50.1455V34.7273H56.1C57.7016 34.7273 59 33.433 59 31.8364V3.89091C59 2.2943 57.7016 1 56.1 1ZM10.6667 3.89091C10.6667 3.35871 11.0995 2.92727 11.6333 2.92727H56.1C56.6339 2.92727 57.0667 3.35871 57.0667 3.89091V22.2H20.3333V21.2364C20.3333 18.5883 15.3221 17.3818 10.6667 17.3818V3.89091ZM57.0667 27.9818H34.7222C32.57 27.3062 30.3227 26.9808 28.0667 27.0182C25.4161 26.9304 22.7779 27.4156 20.3333 28.4405V24.1273H57.0667V27.9818ZM35.8 45.3273C35.8 45.8226 33.1407 47.2545 28.0667 47.2545C22.9926 47.2545 20.3333 45.8226 20.3333 45.3273V42.9413C22.7779 43.9662 25.4161 44.4514 28.0667 44.3636C30.7172 44.4514 33.3554 43.9662 35.8 42.9413V45.3273ZM35.8 30.8727C35.8 31.368 33.1407 32.8 28.0667 32.8C22.9926 32.8 20.3333 31.368 20.3333 30.8727C20.3333 30.3774 22.9926 28.9455 28.0667 28.9455C33.1407 28.9455 35.8 30.3774 35.8 30.8727ZM35.8 35.6909C35.8 36.1862 33.1407 37.6182 28.0667 37.6182C22.9926 37.6182 20.3333 36.1862 20.3333 35.6909V33.3049C22.7779 34.3298 25.4161 34.815 28.0667 34.7273C30.7172 34.815 33.3554 34.3298 35.8 33.3049V35.6909ZM18.4 26.0545C18.4 26.5499 15.7407 27.9818 10.6667 27.9818C5.59263 27.9818 2.93333 26.5499 2.93333 26.0545V23.6686C5.37794 24.6935 8.01613 25.1787 10.6667 25.0909C13.3172 25.1787 15.9554 24.6935 18.4 23.6686V26.0545ZM10.6667 29.9091C13.3172 29.9969 15.9554 29.5116 18.4 28.4868V30.8727C18.4 31.368 15.7407 32.8 10.6667 32.8C5.59263 32.8 2.93333 31.368 2.93333 30.8727V28.4868C5.37794 29.5116 8.01613 29.9969 10.6667 29.9091ZM10.6667 34.7273C13.3172 34.815 15.9554 34.3298 18.4 33.3049V35.6909C18.4 36.1862 15.7407 37.6182 10.6667 37.6182C5.59263 37.6182 2.93333 36.1862 2.93333 35.6909V33.3049C5.37794 34.3298 8.01613 34.815 10.6667 34.7273ZM10.6667 39.5455C13.3172 39.6332 15.9554 39.148 18.4 38.1231V40.5091C18.4 41.0044 15.7407 42.4364 10.6667 42.4364C5.59263 42.4364 2.93333 41.0044 2.93333 40.5091V38.1231C5.37794 39.148 8.01613 39.6332 10.6667 39.5455ZM2.93333 42.9413C5.37794 43.9662 8.01613 44.4514 10.6667 44.3636C13.3172 44.4514 15.9554 43.9662 18.4 42.9413V45.3273C18.4 45.8226 15.7407 47.2545 10.6667 47.2545C5.59263 47.2545 2.93333 45.8226 2.93333 45.3273V42.9413ZM35.8 40.5091C35.8 41.0044 33.1407 42.4364 28.0667 42.4364C22.9926 42.4364 20.3333 41.0044 20.3333 40.5091V38.1231C22.7779 39.148 25.4161 39.6332 28.0667 39.5455C30.7172 39.6332 33.3554 39.148 35.8 38.1231V40.5091ZM10.6667 19.3091C15.7407 19.3091 18.4 20.7411 18.4 21.2364C18.4 21.7317 15.7407 23.1636 10.6667 23.1636C5.59263 23.1636 2.93333 21.7317 2.93333 21.2364C2.93333 20.7411 5.59263 19.3091 10.6667 19.3091ZM10.6667 52.0727C5.59263 52.0727 2.93333 50.6408 2.93333 50.1455V47.7595C5.37794 48.7844 8.01613 49.2696 10.6667 49.1818C13.3172 49.2696 15.9554 48.7844 18.4 47.7595V50.1455C18.4 50.6408 15.7407 52.0727 10.6667 52.0727ZM28.0667 52.0727C22.9926 52.0727 20.3333 50.6408 20.3333 50.1455V47.7595C22.7779 48.7844 25.4161 49.2696 28.0667 49.1818C30.7172 49.2696 33.3554 48.7844 35.8 47.7595V50.1455C35.8 50.6408 33.1407 52.0727 28.0667 52.0727ZM56.1 32.8H37.7333V30.8727C37.732 30.5358 37.6462 30.2046 37.4839 29.9091H57.0667V31.8364C57.0667 32.3686 56.6339 32.8 56.1 32.8Z" fill="#F50E30"/>
<path d="M56.1 1H11.6333C10.0317 1 8.73333 2.2943 8.73333 3.89091V17.4541C4.7236 17.7432 1 18.9535 1 21.2364V50.1455C1 52.7935 6.0112 54 10.6667 54C14.0867 54 17.6905 53.3457 19.3667 51.9513C21.0429 53.3457 24.6466 54 28.0667 54C32.7221 54 37.7333 52.7935 37.7333 50.1455V34.7273H56.1C57.7016 34.7273 59 33.433 59 31.8364V3.89091C59 2.2943 57.7016 1 56.1 1ZM10.6667 3.89091C10.6667 3.35871 11.0995 2.92727 11.6333 2.92727H56.1C56.6339 2.92727 57.0667 3.35871 57.0667 3.89091V22.2H20.3333V21.2364C20.3333 18.5883 15.3221 17.3818 10.6667 17.3818V3.89091ZM57.0667 27.9818H34.7222C32.57 27.3062 30.3227 26.9808 28.0667 27.0182C25.4161 26.9304 22.7779 27.4156 20.3333 28.4405V24.1273H57.0667V27.9818ZM35.8 45.3273C35.8 45.8226 33.1407 47.2545 28.0667 47.2545C22.9926 47.2545 20.3333 45.8226 20.3333 45.3273V42.9413C22.7779 43.9662 25.4161 44.4514 28.0667 44.3636C30.7172 44.4514 33.3554 43.9662 35.8 42.9413V45.3273ZM35.8 30.8727C35.8 31.368 33.1407 32.8 28.0667 32.8C22.9926 32.8 20.3333 31.368 20.3333 30.8727C20.3333 30.3774 22.9926 28.9455 28.0667 28.9455C33.1407 28.9455 35.8 30.3774 35.8 30.8727ZM35.8 35.6909C35.8 36.1862 33.1407 37.6182 28.0667 37.6182C22.9926 37.6182 20.3333 36.1862 20.3333 35.6909V33.3049C22.7779 34.3298 25.4161 34.815 28.0667 34.7273C30.7172 34.815 33.3554 34.3298 35.8 33.3049V35.6909ZM18.4 26.0545C18.4 26.5499 15.7407 27.9818 10.6667 27.9818C5.59263 27.9818 2.93333 26.5499 2.93333 26.0545V23.6686C5.37794 24.6935 8.01613 25.1787 10.6667 25.0909C13.3172 25.1787 15.9554 24.6935 18.4 23.6686V26.0545ZM10.6667 29.9091C13.3172 29.9969 15.9554 29.5116 18.4 28.4868V30.8727C18.4 31.368 15.7407 32.8 10.6667 32.8C5.59263 32.8 2.93333 31.368 2.93333 30.8727V28.4868C5.37794 29.5116 8.01613 29.9969 10.6667 29.9091ZM10.6667 34.7273C13.3172 34.815 15.9554 34.3298 18.4 33.3049V35.6909C18.4 36.1862 15.7407 37.6182 10.6667 37.6182C5.59263 37.6182 2.93333 36.1862 2.93333 35.6909V33.3049C5.37794 34.3298 8.01613 34.815 10.6667 34.7273ZM10.6667 39.5455C13.3172 39.6332 15.9554 39.148 18.4 38.1231V40.5091C18.4 41.0044 15.7407 42.4364 10.6667 42.4364C5.59263 42.4364 2.93333 41.0044 2.93333 40.5091V38.1231C5.37794 39.148 8.01613 39.6332 10.6667 39.5455ZM2.93333 42.9413C5.37794 43.9662 8.01613 44.4514 10.6667 44.3636C13.3172 44.4514 15.9554 43.9662 18.4 42.9413V45.3273C18.4 45.8226 15.7407 47.2545 10.6667 47.2545C5.59263 47.2545 2.93333 45.8226 2.93333 45.3273V42.9413ZM35.8 40.5091C35.8 41.0044 33.1407 42.4364 28.0667 42.4364C22.9926 42.4364 20.3333 41.0044 20.3333 40.5091V38.1231C22.7779 39.148 25.4161 39.6332 28.0667 39.5455C30.7172 39.6332 33.3554 39.148 35.8 38.1231V40.5091ZM10.6667 19.3091C15.7407 19.3091 18.4 20.7411 18.4 21.2364C18.4 21.7317 15.7407 23.1636 10.6667 23.1636C5.59263 23.1636 2.93333 21.7317 2.93333 21.2364C2.93333 20.7411 5.59263 19.3091 10.6667 19.3091ZM10.6667 52.0727C5.59263 52.0727 2.93333 50.6408 2.93333 50.1455V47.7595C5.37794 48.7844 8.01613 49.2696 10.6667 49.1818C13.3172 49.2696 15.9554 48.7844 18.4 47.7595V50.1455C18.4 50.6408 15.7407 52.0727 10.6667 52.0727ZM28.0667 52.0727C22.9926 52.0727 20.3333 50.6408 20.3333 50.1455V47.7595C22.7779 48.7844 25.4161 49.2696 28.0667 49.1818C30.7172 49.2696 33.3554 48.7844 35.8 47.7595V50.1455C35.8 50.6408 33.1407 52.0727 28.0667 52.0727ZM56.1 32.8H37.7333V30.8727C37.732 30.5358 37.6462 30.2046 37.4839 29.9091H57.0667V31.8364C57.0667 32.3686 56.6339 32.8 56.1 32.8Z" stroke="#F50E30" stroke-width="0.8" mask="url(#path-1-outside-1_1081_372)"/>
<path d="M49.9991 15.7H49.9998C52.8717 15.7 55.1998 13.3719 55.1998 10.5C55.1998 7.62812 52.8717 5.3 49.9998 5.3L49.9991 5.3C48.9256 5.30356 47.8813 5.64248 47.0114 6.26741C45.2163 4.98561 42.7995 4.97413 40.9893 6.25359C39.1379 7.56209 38.3477 9.91917 39.0362 12.0792C39.7246 14.2391 41.7331 15.7042 44.0002 15.7C45.0812 15.698 46.1335 15.3592 47.0114 14.7326C47.8813 15.3575 48.9256 15.6964 49.9991 15.7ZM52.7998 10.5C52.7998 12.0464 51.5462 13.3 49.9998 13.3C48.4534 13.3 47.1998 12.0464 47.1998 10.5C47.1998 8.9536 48.4534 7.7 49.9998 7.7C51.5462 7.7 52.7998 8.9536 52.7998 10.5ZM43.9991 7.7C44.4979 7.70285 44.9856 7.83998 45.4115 8.0954C44.5962 9.59371 44.5959 11.4046 45.4107 12.9031C44.4397 13.474 43.212 13.4075 42.3054 12.7189C41.3497 11.9929 40.9644 10.7376 41.3483 9.60044C41.732 8.4634 42.7991 7.69846 43.9991 7.7Z" fill="#F50E30" stroke="#F50E30" stroke-width="0.4"/>
<path d="M24 19.8H25C25.718 19.8 26.3 19.218 26.3 18.5C26.3 17.782 25.718 17.2 25 17.2H24C23.282 17.2 22.7 17.782 22.7 18.5C22.7 19.218 23.282 19.8 24 19.8Z" fill="#F50E30" stroke="#F50E30" stroke-width="0.6"/>
<path d="M29 19.8H30C30.718 19.8 31.3 19.218 31.3 18.5C31.3 17.782 30.718 17.2 30 17.2H29C28.282 17.2 27.7 17.782 27.7 18.5C27.7 19.218 28.282 19.8 29 19.8Z" fill="#F50E30" stroke="#F50E30" stroke-width="0.6"/>
<path d="M34 19.8H35C35.718 19.8 36.3 19.218 36.3 18.5C36.3 17.782 35.718 17.2 35 17.2H34C33.282 17.2 32.7 17.782 32.7 18.5C32.7 19.218 33.282 19.8 34 19.8Z" fill="#F50E30" stroke="#F50E30" stroke-width="0.6"/>
</svg>
