<svg width="31" height="30" viewBox="0 0 31 30" fill="none" xmlns="http://www.w3.org/2000/svg">
<path fill-rule="evenodd" clip-rule="evenodd" d="M15.9688 30C24.253 30 30.9688 23.2843 30.9688 15C30.9688 6.71573 24.253 0 15.9688 0C7.68448 0 0.96875 6.71573 0.96875 15C0.96875 23.2843 7.68448 30 15.9688 30ZM20.1268 8.66615C22.4178 8.66615 23.6174 8.98121 24.2672 9.75358C24.9199 10.5294 24.9688 11.7177 24.9688 13.4419V16.5582C24.9688 18.534 24.6571 19.6752 23.9267 20.3742C23.2145 21.0558 22.1136 21.3339 20.1269 21.3339H11.8105C7.71755 21.3339 6.96875 19.7256 6.96875 16.5582V13.4419C6.96875 11.8069 6.96875 10.6256 7.59985 9.82384C8.24716 9.00153 9.46709 8.66615 11.8105 8.66615H20.1268ZM14.7484 17.4039L18.5248 15.4303C18.7167 15.33 18.8368 15.1314 18.8366 14.9148C18.8363 14.6984 18.7156 14.5001 18.5235 14.4003L14.7471 12.4394C14.5671 12.3459 14.3514 12.3531 14.178 12.4584C14.0046 12.5637 13.8988 12.7519 13.8988 12.9546V16.8893C13.8988 17.0924 14.0049 17.2807 14.1786 17.386C14.2709 17.4418 14.3751 17.4699 14.4795 17.4699C14.5717 17.4699 14.664 17.4481 14.7484 17.4039Z" fill="black"/>
</svg>
